<svg width="727" height="800" viewBox="0 0 727 800" fill="none" xmlns="http://www.w3.org/2000/svg">
<g filter="url(#filter0_bi_9_239)">
<rect y="193.666" width="521" height="653" rx="50" transform="rotate(-21.8217 0 193.666)" fill="url(#paint0_radial_9_239)"/>
<rect x="-1.30007" y="193.11" width="523" height="655" rx="51" transform="rotate(-21.8217 -1.30007 193.11)" stroke="url(#paint1_linear_9_239)" stroke-opacity="0.4" stroke-width="2"/>
<path d="M264.245 262.576L315.894 241.895C316.238 241.758 316.596 241.614 316.946 241.517L316.931 241.48C325.367 238.102 329.325 228.093 325.751 219.169C322.177 210.241 312.404 205.73 303.969 209.107C302.772 209.587 301.594 210.251 300.476 211.078C300.111 211.349 299.645 211.443 299.194 211.337C298.746 211.231 298.35 210.935 298.111 210.523C291.79 199.684 279.2 195.025 268.184 199.436C255.907 204.352 250.147 218.919 255.35 231.911C255.605 232.549 255.904 233.162 256.203 233.765C256.425 234.226 256.449 234.757 256.26 235.215C256.075 235.672 255.69 236.012 255.231 236.139C254.765 236.268 254.302 236.418 253.844 236.601C247.075 239.311 243.9 247.344 246.767 254.503C249.634 261.665 257.476 265.287 264.245 262.576L264.245 262.576ZM252.488 233.457C252.441 233.34 252.393 233.227 252.347 233.113C246.444 218.371 252.981 201.836 266.913 196.258C278.893 191.461 292.507 196.111 299.94 207.324C300.834 206.772 301.758 206.302 302.696 205.927C312.789 201.885 324.48 207.288 328.755 217.966C333.031 228.644 328.298 240.619 318.197 244.663L304.544 250.13L265.519 265.756C257.093 269.13 247.334 264.62 243.764 255.705C240.207 246.821 244.118 236.862 252.488 233.457" fill="white"/>
<path d="M299.609 395.288L353.677 530.32L337.326 536.868L290.121 418.978L289.33 419.295L265.128 454.385L258.475 437.77L283.257 401.836L299.609 395.288ZM371.41 364.396C376.966 362.223 382.926 361.06 389.292 360.908C395.658 360.756 402.085 362.161 408.575 365.122C415.048 368.038 421.314 373.052 427.374 380.163C433.435 387.274 438.947 397.027 443.91 409.423C448.715 421.423 451.84 432.539 453.286 442.773C454.758 452.946 454.638 462.072 452.926 470.153C451.259 478.216 448.052 485.111 443.306 490.836C438.604 496.544 432.451 500.92 424.847 503.965C417.286 506.993 409.941 508.2 402.81 507.587C395.705 506.912 389.189 504.651 383.262 500.802C377.361 496.891 372.457 491.587 368.551 484.888L384.639 478.446C388.571 484.063 393.5 488.031 399.427 490.35C405.381 492.608 411.918 492.311 419.038 489.46C429.456 485.289 435.854 477.448 438.233 465.938C440.655 454.41 438.54 440.339 431.887 423.723L430.832 424.146C429.849 428.824 428.202 433.181 425.891 437.217C423.58 441.254 420.649 444.825 417.098 447.93C413.547 451.035 409.442 453.52 404.783 455.386C397.046 458.483 389.182 459.414 381.189 458.177C373.223 456.878 365.959 453.641 359.398 448.465C352.864 443.227 347.854 436.256 344.369 427.553C341.06 419.289 339.879 410.99 340.826 402.654C341.799 394.257 344.829 386.668 349.918 379.887C355.05 373.089 362.214 367.925 371.41 364.396ZM377.218 378.902C371.679 381.119 367.245 384.502 363.914 389.048C360.61 393.534 358.594 398.625 357.866 404.323C357.164 409.959 357.94 415.59 360.193 421.217C362.446 426.843 365.727 431.471 370.037 435.101C374.373 438.669 379.24 440.953 384.639 441.954C390.064 442.892 395.546 442.253 401.084 440.035C405.26 438.363 408.825 435.993 411.778 432.923C414.713 429.809 416.95 426.287 418.487 422.357C420.051 418.364 420.871 414.236 420.949 409.972C421.009 405.663 420.238 401.509 418.636 397.509C416.524 392.235 413.27 387.8 408.872 384.205C404.519 380.593 399.55 378.247 393.967 377.168C388.427 376.071 382.844 376.649 377.218 378.902Z" fill="white"/>
<path d="M425.296 310.577C427.641 309.638 428.781 306.975 427.842 304.631C426.904 302.286 424.241 301.146 421.896 302.085C419.551 303.024 418.411 305.687 419.35 308.031C420.289 310.376 422.952 311.516 425.296 310.577ZM424.557 308.731C423.228 309.263 421.729 308.621 421.196 307.292C420.664 305.963 421.306 304.463 422.635 303.931C423.965 303.399 425.464 304.041 425.996 305.37C426.528 306.699 425.886 308.199 424.557 308.731ZM452.43 296.885C450.176 293.289 446.158 292.242 442.354 293.765C437.518 295.701 435.503 300.835 437.898 306.817C440.293 312.798 445.294 315.123 450.131 313.186C453.934 311.663 456.119 308.132 455.268 303.974L452.979 304.891C453.475 307.734 451.784 310.039 449.274 311.044C445.84 312.419 442.08 310.84 440.114 305.929C438.147 301.019 439.778 297.281 443.212 295.906C445.723 294.901 448.537 295.402 450.14 297.802L452.43 296.885Z" fill="white"/>
<path d="M326.956 621.712L324.503 622.694C324.075 622.046 323.573 621.528 322.997 621.139C322.427 620.748 321.812 620.474 321.153 620.317C320.497 620.151 319.823 620.1 319.129 620.163C318.435 620.227 317.752 620.393 317.08 620.663C315.853 621.154 314.866 621.908 314.119 622.927C313.378 623.943 312.956 625.171 312.852 626.613C312.755 628.052 313.058 629.648 313.76 631.402C314.462 633.156 315.345 634.52 316.408 635.494C317.478 636.466 318.632 637.063 319.869 637.287C321.113 637.508 322.348 637.373 323.574 636.882C324.247 636.613 324.856 636.262 325.402 635.829C325.948 635.396 326.402 634.897 326.764 634.331C327.131 633.756 327.385 633.13 327.527 632.453C327.673 631.768 327.679 631.046 327.544 630.289L329.997 629.307C330.227 630.416 330.261 631.477 330.101 632.49C329.94 633.503 329.612 634.442 329.117 635.306C328.618 636.163 327.977 636.921 327.193 637.579C326.415 638.235 325.515 638.768 324.493 639.177C322.765 639.868 321.06 640.062 319.377 639.756C317.694 639.451 316.156 638.675 314.761 637.427C313.367 636.18 312.242 634.489 311.386 632.352C310.531 630.216 310.177 628.216 310.326 626.351C310.474 624.486 311.052 622.862 312.059 621.479C313.066 620.097 314.433 619.06 316.161 618.368C317.183 617.959 318.202 617.723 319.217 617.661C320.239 617.596 321.228 617.705 322.183 617.988C323.135 618.265 324.019 618.714 324.834 619.336C325.647 619.952 326.354 620.744 326.956 621.712ZM342.476 632.022C341.105 632.571 339.771 632.726 338.475 632.488C337.185 632.247 336.015 631.656 334.964 630.715C333.921 629.771 333.085 628.514 332.457 626.945C331.823 625.363 331.557 623.867 331.658 622.457C331.765 621.044 332.203 619.806 332.97 618.741C333.744 617.674 334.816 616.866 336.188 616.316C337.559 615.767 338.89 615.613 340.18 615.854C341.476 616.092 342.648 616.687 343.694 617.637C344.747 618.585 345.59 619.85 346.223 621.433C346.852 623.002 347.111 624.489 347.001 625.895C346.897 627.299 346.458 628.534 345.684 629.601C344.917 630.666 343.848 631.473 342.476 632.022ZM341.637 629.925C342.679 629.508 343.429 628.898 343.888 628.094C344.346 627.291 344.563 626.39 344.537 625.39C344.512 624.39 344.296 623.383 343.889 622.367C343.483 621.352 342.942 620.47 342.268 619.723C341.594 618.975 340.812 618.466 339.923 618.194C339.034 617.923 338.069 617.996 337.027 618.413C335.986 618.83 335.237 619.444 334.781 620.254C334.325 621.064 334.111 621.972 334.139 622.978C334.167 623.984 334.384 624.995 334.791 626.011C335.197 627.026 335.736 627.904 336.408 628.645C337.079 629.386 337.858 629.889 338.745 630.154C339.631 630.418 340.595 630.342 341.637 629.925ZM347.02 606.333L355.13 626.588L352.796 627.523L344.686 607.268L347.02 606.333ZM365.703 622.722C364.332 623.271 362.998 623.426 361.701 623.188C360.411 622.947 359.241 622.356 358.191 621.415C357.148 620.471 356.312 619.214 355.683 617.645C355.05 616.062 354.783 614.566 354.884 613.156C354.992 611.744 355.43 610.505 356.197 609.441C356.971 608.373 358.043 607.565 359.415 607.016C360.786 606.467 362.117 606.313 363.407 606.554C364.703 606.792 365.874 607.386 366.921 608.337C367.973 609.285 368.817 610.55 369.45 612.132C370.079 613.702 370.338 615.189 370.227 616.595C370.124 617.998 369.685 619.234 368.911 620.301C368.144 621.366 367.075 622.172 365.703 622.722ZM364.864 620.625C365.905 620.208 366.656 619.598 367.114 618.794C367.573 617.991 367.79 617.089 367.764 616.09C367.739 615.09 367.523 614.082 367.116 613.067C366.71 612.052 366.169 611.17 365.495 610.423C364.821 609.675 364.039 609.166 363.15 608.894C362.261 608.623 361.296 608.696 360.254 609.113C359.212 609.53 358.463 610.144 358.007 610.953C357.551 611.763 357.337 612.672 357.365 613.678C357.393 614.684 357.611 615.695 358.017 616.71C358.424 617.726 358.963 618.604 359.635 619.345C360.306 620.086 361.085 620.589 361.971 620.853C362.858 621.118 363.822 621.042 364.864 620.625ZM376.023 618.222L369.94 603.031L372.195 602.128L373.145 604.502L373.343 604.423C373.335 603.485 373.594 602.651 374.12 601.92C374.643 601.182 375.399 600.616 376.388 600.22C377.391 599.818 378.316 599.712 379.164 599.9C380.016 600.079 380.792 600.499 381.493 601.16L381.651 601.096C381.726 600.156 382.06 599.299 382.653 598.526C383.244 597.746 384.083 597.139 385.171 596.703C386.529 596.159 387.81 596.14 389.014 596.644C390.216 597.142 391.175 598.285 391.89 600.072L395.961 610.239L393.627 611.173L389.556 601.006C389.107 599.885 388.48 599.207 387.674 598.971C386.868 598.736 386.05 598.784 385.219 599.117C384.151 599.544 383.453 600.199 383.125 601.08C382.794 601.954 382.825 602.883 383.219 603.865L387.179 613.755L384.805 614.706L380.639 604.301C380.293 603.438 379.735 602.854 378.963 602.551C378.189 602.242 377.36 602.264 376.476 602.617C375.87 602.86 375.367 603.249 374.969 603.783C374.578 604.315 374.335 604.932 374.242 605.635C374.152 606.329 374.257 607.048 374.555 607.793L378.357 617.288L376.023 618.222ZM400.545 608.403L392.435 588.148L394.769 587.214L397.763 594.691L397.961 594.611C398.026 594.279 398.129 593.848 398.269 593.318C398.412 592.778 398.706 592.232 399.15 591.679C399.599 591.117 400.317 590.638 401.306 590.242C402.585 589.73 403.841 589.598 405.073 589.847C406.305 590.096 407.429 590.698 408.446 591.652C409.464 592.607 410.292 593.882 410.931 595.477C411.575 597.086 411.859 598.59 411.785 599.99C411.707 601.382 411.314 602.596 410.603 603.63C409.89 604.658 408.9 605.425 407.634 605.932C406.659 606.323 405.813 606.474 405.096 606.386C404.378 606.291 403.777 606.099 403.294 605.811C402.809 605.515 402.425 605.264 402.142 605.055L401.865 605.166L402.8 607.5L400.545 608.403ZM399.798 599.889C400.258 601.036 400.831 601.981 401.518 602.723C402.203 603.459 402.968 603.945 403.812 604.18C404.653 604.41 405.542 604.337 406.478 603.962C407.454 603.571 408.166 602.988 408.612 602.212C409.063 601.427 409.278 600.53 409.256 599.522C409.239 598.503 409.014 597.454 408.581 596.372C408.153 595.304 407.603 594.408 406.93 593.682C406.261 592.948 405.496 592.462 404.636 592.225C403.78 591.979 402.858 592.054 401.869 592.45C400.919 592.83 400.218 593.39 399.765 594.13C399.309 594.864 399.087 595.725 399.101 596.714C399.112 597.697 399.344 598.755 399.798 599.889ZM423.824 599.449C422.453 599.998 421.119 600.154 419.823 599.915C418.533 599.675 417.363 599.083 416.312 598.142C415.269 597.198 414.433 595.942 413.805 594.372C413.171 592.79 412.905 591.294 413.006 589.884C413.113 588.471 413.551 587.233 414.318 586.168C415.092 585.101 416.164 584.293 417.536 583.744C418.907 583.195 420.238 583.04 421.528 583.281C422.824 583.52 423.996 584.114 425.042 585.065C426.095 586.012 426.938 587.278 427.572 588.86C428.2 590.429 428.459 591.917 428.349 593.323C428.245 594.726 427.806 595.961 427.032 597.029C426.265 598.093 425.196 598.9 423.824 599.449ZM422.985 597.352C424.027 596.935 424.777 596.325 425.236 595.522C425.694 594.718 425.911 593.817 425.885 592.817C425.86 591.817 425.644 590.81 425.237 589.795C424.831 588.779 424.291 587.898 423.616 587.15C422.942 586.403 422.161 585.893 421.271 585.622C420.382 585.35 419.417 585.423 418.375 585.84C417.334 586.258 416.585 586.871 416.129 587.681C415.673 588.491 415.459 589.399 415.487 590.405C415.515 591.412 415.732 592.422 416.139 593.438C416.545 594.453 417.084 595.331 417.756 596.072C418.427 596.813 419.206 597.316 420.093 597.581C420.979 597.846 421.943 597.77 422.985 597.352ZM436.517 590.787L436.786 591.918C436.975 592.715 437.126 593.588 437.238 594.537C437.357 595.484 437.446 596.386 437.506 597.241C437.566 598.097 437.606 598.781 437.627 599.293L435.847 600.006C435.764 599.549 435.653 598.947 435.514 598.2C435.375 597.452 435.204 596.622 434.999 595.709C434.803 594.801 434.574 593.883 434.31 592.956L433.985 591.8L436.517 590.787ZM455.093 568.935C454.573 567.98 453.781 567.395 452.715 567.179C451.649 566.963 450.503 567.101 449.277 567.592C448.38 567.951 447.653 568.41 447.097 568.969C446.547 569.526 446.186 570.133 446.014 570.792C445.848 571.447 445.894 572.098 446.153 572.744C446.369 573.285 446.684 573.698 447.097 573.984C447.514 574.261 447.978 574.446 448.49 574.54C448.999 574.627 449.511 574.663 450.025 574.648C450.537 574.627 451 574.59 451.416 574.539L453.695 574.269C454.277 574.196 454.941 574.152 455.685 574.137C456.435 574.12 457.192 574.204 457.954 574.388C458.72 574.563 459.429 574.899 460.079 575.396C460.729 575.893 461.245 576.616 461.625 577.566C462.063 578.66 462.172 579.764 461.952 580.877C461.739 581.988 461.189 583.023 460.304 583.982C459.424 584.938 458.207 585.728 456.65 586.351C455.2 586.932 453.85 587.201 452.601 587.158C451.359 587.112 450.267 586.792 449.325 586.197C448.39 585.6 447.661 584.764 447.138 583.688L449.67 582.674C450.042 583.412 450.553 583.942 451.202 584.264C451.854 584.576 452.576 584.716 453.366 584.683C454.16 584.64 454.959 584.458 455.763 584.136C456.7 583.761 457.48 583.273 458.103 582.671C458.724 582.063 459.143 581.398 459.359 580.676C459.572 579.948 459.531 579.215 459.235 578.477C458.966 577.804 458.559 577.332 458.014 577.061C457.469 576.789 456.838 576.644 456.119 576.626C455.4 576.608 454.645 576.642 453.854 576.73L451.076 577.016C449.312 577.194 447.799 577.046 446.538 576.572C445.277 576.098 444.373 575.178 443.827 573.813C443.373 572.679 443.283 571.567 443.558 570.478C443.838 569.379 444.404 568.387 445.259 567.502C446.117 566.608 447.192 565.902 448.485 565.384C449.79 564.861 451.044 564.631 452.247 564.692C453.447 564.747 454.505 565.058 455.421 565.625C456.343 566.189 457.025 566.976 457.467 567.984L455.093 568.935ZM467.543 581.577L461.46 566.385L463.715 565.483L464.634 567.777L464.792 567.714C464.768 566.851 465.025 566.041 465.563 565.282C466.1 564.524 466.824 563.962 467.734 563.598C467.906 563.529 468.121 563.447 468.381 563.35C468.641 563.254 468.839 563.186 468.976 563.146L469.927 565.52C469.84 565.532 469.647 565.575 469.347 565.649C469.052 565.713 468.749 565.808 468.439 565.932C467.701 566.228 467.104 566.647 466.647 567.189C466.195 567.722 465.909 568.326 465.789 569.001C465.674 569.667 465.753 570.343 466.028 571.029L469.877 580.642L467.543 581.577ZM477.905 577.427L471.822 562.236L474.156 561.302L480.239 576.493L477.905 577.427ZM471.995 559.229C471.54 559.411 471.086 559.414 470.632 559.236C470.185 559.055 469.874 558.747 469.7 558.312C469.526 557.877 469.538 557.44 469.737 557.001C469.943 556.559 470.273 556.247 470.728 556.064C471.183 555.882 471.634 555.881 472.081 556.062C472.535 556.24 472.849 556.546 473.023 556.982C473.197 557.417 473.182 557.855 472.976 558.297C472.777 558.736 472.45 559.047 471.995 559.229ZM492.663 571.518L484.553 551.263L487.006 550.281L494.245 568.36L503.66 564.59L504.531 566.766L492.663 571.518ZM512.626 563.938C511.663 564.323 510.717 564.492 509.787 564.443C508.854 564.388 508.019 564.107 507.28 563.6C506.539 563.086 505.97 562.334 505.574 561.345C505.226 560.475 505.115 559.701 505.241 559.023C505.365 558.338 505.651 557.726 506.101 557.186C506.55 556.647 507.091 556.163 507.722 555.734C508.358 555.296 509.01 554.889 509.679 554.514C510.554 554.026 511.267 553.638 511.817 553.348C512.371 553.05 512.749 552.772 512.952 552.515C513.162 552.255 513.191 551.937 513.041 551.562L513.009 551.483C512.618 550.507 512.048 549.855 511.297 549.529C510.553 549.199 509.644 549.25 508.569 549.68C507.455 550.126 506.679 550.72 506.241 551.461C505.804 552.203 505.567 552.902 505.532 553.558L503 553.654C503.026 552.573 503.265 551.643 503.719 550.865C504.176 550.077 504.756 549.424 505.459 548.906C506.166 548.378 506.901 547.961 507.666 547.654C508.154 547.459 508.738 547.294 509.419 547.159C510.103 547.015 510.813 547.002 511.549 547.121C512.292 547.237 513.005 547.575 513.688 548.135C514.372 548.695 514.955 549.579 515.438 550.785L519.446 560.794L517.112 561.729L516.288 559.671L516.169 559.719C516.143 560.112 516.02 560.57 515.802 561.094C515.583 561.618 515.22 562.134 514.712 562.643C514.205 563.153 513.509 563.584 512.626 563.938ZM512.142 561.699C513.065 561.329 513.771 560.836 514.258 560.22C514.753 559.601 515.047 558.941 515.14 558.238C515.24 557.532 515.163 556.863 514.91 556.23L514.054 554.094C514.003 554.252 513.829 554.448 513.532 554.681C513.24 554.906 512.89 555.141 512.484 555.388C512.082 555.625 511.687 555.852 511.299 556.069C510.916 556.276 510.605 556.446 510.368 556.58C509.793 556.902 509.277 557.257 508.821 557.646C508.369 558.026 508.051 558.456 507.868 558.935C507.689 559.404 507.718 559.936 507.956 560.529C508.28 561.34 508.826 561.833 509.592 562.008C510.362 562.174 511.212 562.071 512.142 561.699ZM522.381 549.015L526.04 558.154L523.706 559.088L517.623 543.897L519.878 542.994L520.828 545.368L521.026 545.289C521.073 544.375 521.366 543.538 521.904 542.78C522.439 542.015 523.28 541.402 524.427 540.943C525.456 540.531 526.44 540.382 527.381 540.495C528.319 540.601 529.172 540.994 529.941 541.673C530.708 542.345 531.35 543.328 531.867 544.62L535.732 554.273L533.398 555.207L529.596 545.713C529.118 544.52 528.436 543.714 527.55 543.296C526.661 542.872 525.676 542.876 524.594 543.309C523.849 543.607 523.248 544.036 522.791 544.594C522.34 545.149 522.07 545.804 521.982 546.558C521.894 547.313 522.027 548.132 522.381 549.015ZM539.955 546.155L538.759 543.283L539.234 543.093L543.172 533.667L546.059 532.511L541.845 542.507L541.647 542.586L539.955 546.155ZM539.997 552.565L531.887 532.31L534.221 531.376L542.331 551.63L539.997 552.565ZM549.65 548.7L540.706 543.56L541.718 541.272L552.617 547.512L549.65 548.7ZM559.759 545.065C558.796 545.451 557.85 545.619 556.92 545.571C555.988 545.516 555.152 545.234 554.414 544.727C553.672 544.213 553.104 543.461 552.708 542.472C552.359 541.602 552.248 540.828 552.374 540.15C552.498 539.465 552.785 538.853 553.234 538.314C553.684 537.774 554.224 537.29 554.856 536.861C555.491 536.423 556.143 536.016 556.812 535.642C557.688 535.153 558.4 534.765 558.95 534.476C559.504 534.177 559.882 533.9 560.085 533.642C560.295 533.383 560.325 533.065 560.174 532.689L560.142 532.61C559.752 531.634 559.181 530.983 558.43 530.656C557.687 530.326 556.777 530.377 555.702 530.807C554.588 531.253 553.812 531.847 553.375 532.588C552.937 533.33 552.701 534.029 552.665 534.686L550.133 534.782C550.159 533.7 550.399 532.77 550.852 531.992C551.309 531.204 551.89 530.551 552.592 530.033C553.299 529.505 554.035 529.088 554.8 528.782C555.288 528.586 555.872 528.421 556.552 528.286C557.237 528.142 557.947 528.13 558.683 528.248C559.425 528.364 560.138 528.702 560.822 529.262C561.505 529.823 562.088 530.706 562.571 531.913L566.579 541.921L564.245 542.856L563.421 540.799L563.303 540.846C563.276 541.239 563.154 541.698 562.935 542.221C562.716 542.745 562.353 543.261 561.846 543.771C561.338 544.28 560.643 544.711 559.759 545.065ZM559.276 542.826C560.199 542.456 560.904 541.963 561.392 541.347C561.886 540.729 562.18 540.068 562.273 539.365C562.373 538.659 562.297 537.99 562.043 537.357L561.188 535.221C561.136 535.379 560.962 535.575 560.666 535.808C560.373 536.033 560.024 536.268 559.618 536.515C559.215 536.753 558.82 536.98 558.433 537.196C558.049 537.403 557.739 537.573 557.501 537.707C556.926 538.029 556.411 538.384 555.955 538.774C555.502 539.154 555.185 539.583 555.001 540.062C554.822 540.531 554.851 541.063 555.089 541.656C555.414 542.467 555.959 542.96 556.726 543.135C557.496 543.301 558.346 543.198 559.276 542.826Z" fill="white"/>
</g>
<defs>
<filter id="filter0_bi_9_239" x="-42" y="-42" width="810.401" height="883.875" filterUnits="userSpaceOnUse" color-interpolation-filters="sRGB">
<feFlood flood-opacity="0" result="BackgroundImageFix"/>
<feGaussianBlur in="BackgroundImageFix" stdDeviation="21"/>
<feComposite in2="SourceAlpha" operator="in" result="effect1_backgroundBlur_9_239"/>
<feBlend mode="normal" in="SourceGraphic" in2="effect1_backgroundBlur_9_239" result="shape"/>
<feColorMatrix in="SourceAlpha" type="matrix" values="0 0 0 0 0 0 0 0 0 0 0 0 0 0 0 0 0 0 127 0" result="hardAlpha"/>
<feOffset dx="-5" dy="-5"/>
<feGaussianBlur stdDeviation="125"/>
<feComposite in2="hardAlpha" operator="arithmetic" k2="-1" k3="1"/>
<feColorMatrix type="matrix" values="0 0 0 0 1 0 0 0 0 1 0 0 0 0 1 0 0 0 0.02 0"/>
<feBlend mode="normal" in2="shape" result="effect2_innerShadow_9_239"/>
</filter>
<radialGradient id="paint0_radial_9_239" cx="0" cy="0" r="1" gradientUnits="userSpaceOnUse" gradientTransform="translate(0 193.666) rotate(51.4152) scale(835.374 565.958)">
<stop stop-color="white" stop-opacity="0.4"/>
<stop offset="1" stop-color="white" stop-opacity="0"/>
</radialGradient>
<linearGradient id="paint1_linear_9_239" x1="0" y1="193.666" x2="171.03" y2="905.769" gradientUnits="userSpaceOnUse">
<stop stop-color="white"/>
<stop offset="1" stop-color="#EEEDED" stop-opacity="0.5"/>
</linearGradient>
</defs>
</svg>
