<svg width="625" height="733" viewBox="0 0 625 733" fill="none" xmlns="http://www.w3.org/2000/svg">
<g filter="url(#filter0_bi_9_248)">
<rect x="111.577" width="521" height="653" rx="50" transform="rotate(9.83834 111.577 0)" fill="url(#paint0_radial_9_248)"/>
<rect x="110.763" y="-1.15616" width="523" height="655" rx="51" transform="rotate(9.83834 110.763 -1.15616)" stroke="url(#paint1_linear_9_248)" stroke-opacity="0.4" stroke-width="2"/>
</g>
<mask id="mask0_9_248" style="mask-type:alpha" maskUnits="userSpaceOnUse" x="275" y="97" width="144" height="144">
<rect x="296.715" y="97.0617" width="124" height="124" transform="rotate(9.83834 296.715 97.0617)" fill="#C4C4C4"/>
</mask>
<g mask="url(#mask0_9_248)">
<path d="M342.751 196.239C327.876 193.659 317.876 179.459 320.456 164.584C323.035 149.712 337.232 139.708 352.107 142.288C366.982 144.867 376.982 159.068 374.403 173.939C371.824 188.814 357.626 198.818 342.751 196.239ZM352.768 138.476C335.792 135.533 319.588 146.947 316.644 163.923C313.7 180.899 325.114 197.106 342.09 200.05C359.062 202.993 375.27 191.576 378.214 174.6C381.158 157.625 369.74 141.42 352.768 138.476Z" fill="#F5FCFF"/>
<path d="M354.333 129.452C355.385 129.634 356.385 128.93 356.568 127.875L359.207 112.657C359.389 111.605 358.685 110.605 357.633 110.423C356.581 110.24 355.578 110.944 355.396 111.996L352.757 127.214C352.573 128.269 353.281 129.269 354.333 129.452Z" fill="#F5FCFF"/>
<path d="M340.601 208.636C339.549 208.454 338.546 209.157 338.363 210.213L335.724 225.43C335.541 226.482 336.249 227.483 337.301 227.665C338.353 227.847 339.353 227.143 339.535 226.091L342.174 210.874C342.357 209.818 341.653 208.819 340.601 208.636Z" fill="#F5FCFF"/>
<path d="M374.149 138.998C374.428 139.245 374.758 139.397 375.101 139.456C375.739 139.567 376.419 139.356 376.88 138.835L387.137 127.284C387.842 126.483 387.77 125.265 386.974 124.554C386.174 123.845 384.952 123.916 384.244 124.716L373.986 136.271C373.278 137.067 373.349 138.289 374.149 138.998Z" fill="#F5FCFF"/>
<path d="M320.786 199.09C319.99 198.382 318.764 198.453 318.056 199.253L307.799 210.804C307.09 211.604 307.166 212.823 307.962 213.535C308.244 213.783 308.571 213.934 308.913 213.993C309.551 214.104 310.231 213.893 310.692 213.372L320.95 201.818C321.658 201.021 321.583 199.798 320.786 199.09Z" fill="#F5FCFF"/>
<path d="M387.124 157.758C387.43 157.811 387.747 157.793 388.062 157.69L402.735 152.826C403.751 152.492 404.301 151.399 403.963 150.383C403.628 149.374 402.535 148.82 401.519 149.158L386.846 154.018C385.831 154.352 385.28 155.449 385.618 156.462C385.85 157.163 386.445 157.64 387.124 157.758Z" fill="#F5FCFF"/>
<path d="M306.825 180.516L292.146 185.375C291.133 185.713 290.584 186.803 290.918 187.819C291.153 188.52 291.744 189 292.426 189.119C292.728 189.171 293.047 189.149 293.362 189.046L308.038 184.187C309.054 183.85 309.604 182.756 309.269 181.741C308.931 180.731 307.841 180.182 306.825 180.516" fill="#F5FCFF"/>
<path d="M404.564 176.875L404.558 176.874L389.319 174.277C388.267 174.097 387.267 174.805 387.088 175.858C386.908 176.907 387.613 177.907 388.662 178.089L388.667 178.09L403.906 180.687C404.959 180.867 405.959 180.159 406.138 179.106C406.318 178.053 405.612 177.057 404.564 176.875Z" fill="#F5FCFF"/>
<path d="M307.806 162.34C307.986 161.288 307.28 160.291 306.228 160.109L306.225 160.108L290.986 157.511C289.93 157.331 288.934 158.04 288.755 159.092C288.575 160.145 289.28 161.141 290.329 161.323L290.334 161.324L305.573 163.921C306.626 164.101 307.623 163.392 307.805 162.34" fill="#F5FCFF"/>
<path d="M393.776 203.391L381.672 193.766C380.836 193.1 379.62 193.238 378.954 194.074C378.292 194.91 378.43 196.13 379.266 196.792L391.368 206.414C391.631 206.627 391.931 206.756 392.239 206.809C392.911 206.926 393.632 206.68 394.084 206.109C394.751 205.27 394.609 204.053 393.776 203.391Z" fill="#F5FCFF"/>
<path d="M315.68 141.276L303.579 131.651C302.744 130.985 301.524 131.123 300.862 131.959C300.196 132.795 300.334 134.014 301.17 134.677L313.271 144.302C313.535 144.512 313.835 144.641 314.143 144.694C314.819 144.811 315.536 144.565 315.992 143.994C316.654 143.158 316.516 141.939 315.68 141.276" fill="#F5FCFF"/>
<path d="M365.176 207.347C364.774 206.361 363.647 205.882 362.657 206.288C361.668 206.689 361.193 207.82 361.598 208.806L367.432 223.127C367.691 223.766 368.258 224.189 368.892 224.299C369.238 224.359 369.6 224.328 369.95 224.186C370.939 223.784 371.415 222.653 371.013 221.664L365.176 207.347Z" fill="#F5FCFF"/>
<path d="M329.768 130.724C330.027 131.364 330.597 131.791 331.228 131.9C331.574 131.96 331.94 131.926 332.286 131.787C333.275 131.382 333.751 130.251 333.349 129.265L327.512 114.944C327.11 113.959 325.983 113.48 324.99 113.885C324.001 114.287 323.529 115.418 323.931 116.403L329.768 130.724Z" fill="#F5FCFF"/>
</g>
<path d="M222.005 464.691C212.768 463.089 204.808 460.075 198.128 455.649C191.493 451.23 186.543 445.831 183.276 439.45C180.065 433.03 178.924 426.032 179.853 418.456L197.487 421.515C197.06 426.198 197.954 430.462 200.171 434.306C202.396 438.104 205.613 441.305 209.823 443.909C214.032 446.513 218.89 448.293 224.395 449.247C230.553 450.315 236.197 450.189 241.328 448.868C246.458 447.547 250.708 445.209 254.078 441.853C257.447 438.496 259.568 434.299 260.442 429.261C261.356 423.989 260.855 419.12 258.938 414.655C257.03 410.143 253.754 406.308 249.112 403.148C244.47 399.988 238.51 397.777 231.233 396.515L219.756 394.525L222.426 379.13L233.902 381.12C239.594 382.107 244.764 381.946 249.412 380.638C254.106 379.338 257.99 377.032 261.063 373.72C264.183 370.417 266.18 366.246 267.054 361.208C267.895 356.356 267.554 351.948 266.031 347.983C264.508 344.019 261.961 340.694 258.39 338.008C254.866 335.331 250.468 333.535 245.197 332.621C240.251 331.763 235.428 331.864 230.728 332.923C226.081 333.943 222.087 335.917 218.744 338.846C215.409 341.727 213.212 345.527 212.154 350.245L195.359 347.333C196.941 339.87 200.345 333.685 205.569 328.776C210.801 323.821 217.122 320.351 224.53 318.368C231.984 316.393 239.84 316.122 248.098 317.554C256.962 319.091 264.254 322.206 269.976 326.898C275.706 331.544 279.768 337.078 282.162 343.5C284.557 349.923 285.167 356.516 283.994 363.28C282.595 371.351 279.279 377.864 274.046 382.82C268.86 387.783 262.462 390.734 254.851 391.673L254.656 392.792C263.448 395.855 269.848 400.929 273.857 408.016C277.875 415.056 279.094 423.124 277.517 432.222C276.166 440.012 272.829 446.642 267.508 452.111C262.241 457.541 255.662 461.397 247.769 463.681C239.877 465.964 231.288 466.301 222.005 464.691ZM335.943 484.45C325.4 482.622 316.917 478.195 310.494 471.171C304.08 464.099 299.864 454.742 297.846 443.1C295.837 431.41 296.183 417.774 298.885 402.193C301.571 386.704 305.824 373.818 311.644 363.534C317.519 353.212 324.667 345.802 333.088 341.303C341.564 336.766 351.026 335.404 361.476 337.216C371.927 339.028 380.355 343.493 386.761 350.611C393.222 357.69 397.458 367.075 399.467 378.764C401.531 390.415 401.22 403.985 398.534 419.474C395.832 435.055 391.567 448.011 385.739 458.342C379.919 468.625 372.798 476.017 364.378 480.515C355.965 484.967 346.487 486.279 335.943 484.45ZM338.613 469.055C349.063 470.867 358.054 467.237 365.587 458.163C373.119 449.089 378.503 435.222 381.74 416.561C383.892 404.152 384.395 393.354 383.248 384.169C382.149 374.992 379.523 367.689 375.37 362.259C371.265 356.838 365.76 353.529 358.855 352.331C348.498 350.535 339.518 354.24 331.915 363.445C324.32 372.604 318.908 386.491 315.68 405.105C313.528 417.515 313.006 428.284 314.114 437.415C315.221 446.545 317.832 453.798 321.946 459.173C326.106 464.555 331.662 467.85 338.613 469.055Z" fill="white"/>
<path d="M435.088 319.603C437.577 320.035 439.945 318.366 440.377 315.878C440.808 313.39 439.14 311.021 436.651 310.59C434.163 310.158 431.795 311.827 431.363 314.315C430.932 316.803 432.6 319.172 435.088 319.603ZM435.428 317.644C434.017 317.399 433.078 316.066 433.323 314.655C433.567 313.244 434.901 312.305 436.312 312.549C437.722 312.794 438.662 314.127 438.417 315.538C438.172 316.949 436.839 317.888 435.428 317.644ZM465.37 322.19C465.339 317.947 462.469 314.946 458.432 314.246C453.299 313.356 448.89 316.668 447.789 323.017C446.688 329.365 449.724 333.969 454.858 334.859C458.894 335.559 462.607 333.7 464.065 329.714L461.636 329.293C460.565 331.973 457.917 333.048 455.252 332.586C451.607 331.954 449.236 328.636 450.14 323.424C451.044 318.212 454.394 315.887 458.038 316.519C460.703 316.981 462.835 318.885 462.94 321.769L465.37 322.19Z" fill="white"/>
<path d="M206.058 533.794C205.949 533.047 205.755 532.361 205.474 531.736C205.201 531.105 204.841 530.545 204.392 530.056C203.95 529.569 203.422 529.163 202.808 528.841C202.194 528.518 201.498 528.289 200.721 528.154C199.448 527.934 198.232 528.062 197.076 528.539C195.919 529.016 194.922 529.841 194.084 531.015C193.246 532.189 192.666 533.706 192.343 535.568C192.02 537.429 192.059 539.054 192.46 540.443C192.86 541.831 193.535 542.947 194.485 543.789C195.435 544.631 196.574 545.168 197.904 545.398C199.135 545.612 200.266 545.537 201.294 545.175C202.331 544.807 203.196 544.186 203.888 543.311C204.589 542.431 205.053 541.333 205.281 540.017L206.05 540.323L199.584 539.202L199.984 536.893L208.172 538.313L207.771 540.622C207.464 542.392 206.819 543.866 205.837 545.044C204.861 546.223 203.649 547.058 202.202 547.549C200.762 548.035 199.189 548.13 197.482 547.833C195.578 547.503 193.983 546.765 192.697 545.62C191.418 544.475 190.519 543.007 190.001 541.216C189.489 539.427 189.43 537.398 189.823 535.131C190.118 533.43 190.611 531.941 191.301 530.662C192 529.377 192.852 528.329 193.858 527.516C194.864 526.703 195.985 526.14 197.221 525.828C198.458 525.516 199.765 525.48 201.144 525.719C202.277 525.916 203.304 526.27 204.224 526.783C205.153 527.29 205.948 527.922 206.61 528.678C207.28 529.429 207.799 530.279 208.167 531.23C208.537 532.173 208.73 533.183 208.745 534.26L206.058 533.794ZM215.109 550.977C214.088 550.8 213.194 550.446 212.428 549.917C211.663 549.381 211.099 548.703 210.737 547.883C210.376 547.056 210.286 546.118 210.468 545.069C210.628 544.145 210.94 543.428 211.404 542.917C211.868 542.399 212.433 542.029 213.099 541.805C213.765 541.582 214.479 541.454 215.242 541.42C216.013 541.381 216.781 541.377 217.547 541.409C218.549 541.453 219.359 541.496 219.979 541.539C220.607 541.576 221.075 541.538 221.383 541.425C221.697 541.314 221.889 541.059 221.959 540.66L221.973 540.576C222.153 539.541 222.009 538.687 221.542 538.015C221.081 537.344 220.281 536.909 219.14 536.712C217.958 536.506 216.985 536.605 216.224 537.006C215.462 537.407 214.894 537.878 214.519 538.419L212.314 537.171C212.903 536.264 213.595 535.599 214.39 535.174C215.193 534.744 216.029 534.492 216.899 534.42C217.778 534.342 218.623 534.373 219.435 534.514C219.953 534.603 220.537 534.77 221.187 535.012C221.845 535.249 222.456 535.611 223.02 536.098C223.591 536.586 224.021 537.248 224.309 538.084C224.596 538.919 224.629 539.977 224.407 541.258L222.565 551.881L220.087 551.451L220.466 549.268L220.34 549.246C220.111 549.567 219.767 549.892 219.306 550.223C218.844 550.554 218.264 550.803 217.565 550.97C216.866 551.137 216.047 551.14 215.109 550.977ZM215.873 548.817C216.853 548.987 217.712 548.938 218.45 548.669C219.196 548.402 219.793 547.994 220.242 547.445C220.697 546.897 220.983 546.287 221.099 545.615L221.493 543.347C221.366 543.455 221.115 543.531 220.74 543.574C220.373 543.611 219.952 543.628 219.477 543.625C219.01 543.616 218.554 543.602 218.111 543.583C217.675 543.558 217.322 543.54 217.05 543.528C216.391 543.501 215.766 543.533 215.173 543.625C214.589 543.711 214.093 543.91 213.686 544.221C213.287 544.527 213.033 544.994 212.924 545.624C212.774 546.485 212.98 547.191 213.54 547.742C214.109 548.288 214.886 548.646 215.873 548.817ZM233.291 531.597L229.563 553.094L227.086 552.665L230.814 531.167L233.291 531.597ZM240.306 532.813L236.578 554.311L234.101 553.881L237.829 532.384L240.306 532.813ZM247.817 556.606C246.263 556.336 244.982 555.761 243.975 554.88C242.975 553.993 242.278 552.877 241.884 551.533C241.499 550.183 241.449 548.682 241.735 547.031C242.022 545.379 242.575 543.976 243.395 542.821C244.224 541.66 245.242 540.82 246.449 540.301C247.664 539.777 249 539.641 250.455 539.893C251.295 540.039 252.1 540.323 252.87 540.745C253.64 541.166 254.307 541.751 254.869 542.497C255.433 543.236 255.825 544.155 256.046 545.253C256.266 546.35 256.246 547.652 255.985 549.156L255.803 550.206L243.375 548.051L243.746 545.909L253.655 547.628C253.813 546.718 253.772 545.875 253.532 545.098C253.299 544.322 252.886 543.67 252.292 543.142C251.706 542.615 250.965 542.274 250.069 542.119C249.083 541.947 248.187 542.044 247.381 542.409C246.583 542.768 245.925 543.303 245.405 544.013C244.886 544.723 244.549 545.522 244.395 546.411L244.147 547.838C243.936 549.056 243.967 550.125 244.24 551.044C244.521 551.958 245.001 552.701 245.681 553.273C246.361 553.838 247.202 554.207 248.203 554.38C248.853 554.493 249.457 554.504 250.013 554.413C250.578 554.317 251.085 554.116 251.534 553.812C251.984 553.501 252.363 553.084 252.67 552.56L254.947 553.647C254.554 554.415 254.007 555.055 253.305 555.568C252.605 556.074 251.788 556.422 250.854 556.613C249.921 556.798 248.908 556.795 247.817 556.606ZM262.524 555.783L262.159 556.887C261.902 557.664 261.572 558.487 261.169 559.354C260.773 560.222 260.376 561.036 259.978 561.796C259.579 562.556 259.255 563.159 259.004 563.606L257.115 563.278C257.284 562.846 257.505 562.276 257.78 561.566C258.054 560.857 258.343 560.06 258.648 559.176C258.959 558.3 259.245 557.398 259.507 556.471L259.836 555.317L262.524 555.783ZM289.805 546.934C289.864 545.848 289.496 544.934 288.702 544.191C287.909 543.447 286.861 542.963 285.559 542.737C284.608 542.572 283.748 542.582 282.981 542.766C282.221 542.951 281.595 543.279 281.102 543.748C280.617 544.219 280.315 544.798 280.196 545.483C280.096 546.057 280.147 546.574 280.349 547.034C280.558 547.489 280.856 547.89 281.243 548.238C281.63 548.579 282.047 548.879 282.493 549.136C282.939 549.387 283.353 549.599 283.734 549.773L285.815 550.739C286.349 550.984 286.937 551.294 287.578 551.672C288.226 552.051 288.826 552.519 289.378 553.077C289.938 553.628 290.365 554.286 290.658 555.05C290.95 555.814 291.009 556.7 290.835 557.708C290.633 558.87 290.147 559.867 289.375 560.699C288.611 561.532 287.6 562.125 286.342 562.476C285.092 562.828 283.641 562.862 281.989 562.575C280.45 562.308 279.16 561.829 278.119 561.136C277.086 560.445 276.324 559.6 275.835 558.599C275.352 557.6 275.17 556.505 275.29 555.315L277.978 555.781C277.907 556.605 278.063 557.324 278.447 557.939C278.839 558.547 279.379 559.045 280.069 559.431C280.767 559.812 281.543 560.076 282.397 560.224C283.391 560.396 284.311 560.39 285.157 560.205C286.005 560.013 286.71 559.667 287.273 559.167C287.837 558.659 288.187 558.013 288.323 557.229C288.446 556.516 288.348 555.9 288.026 555.383C287.705 554.866 287.244 554.411 286.641 554.018C286.039 553.626 285.378 553.259 284.659 552.918L282.145 551.703C280.549 550.929 279.339 550.009 278.515 548.944C277.69 547.878 277.404 546.621 277.655 545.172C277.864 543.969 278.371 542.975 279.177 542.193C279.991 541.404 280.995 540.857 282.186 540.552C283.386 540.241 284.672 540.205 286.044 540.442C287.429 540.683 288.618 541.145 289.609 541.828C290.602 542.505 291.339 543.325 291.821 544.288C292.31 545.252 292.478 546.28 292.325 547.37L289.805 546.934ZM293.767 564.228L296.563 548.105L298.956 548.52L298.534 550.956L298.702 550.985C299.134 550.238 299.778 549.683 300.634 549.32C301.49 548.956 302.401 548.858 303.366 549.026C303.548 549.057 303.775 549.1 304.047 549.155C304.318 549.209 304.523 549.255 304.661 549.293L304.224 551.813C304.143 551.777 303.956 551.712 303.663 551.618C303.377 551.518 303.07 551.44 302.741 551.383C301.957 551.247 301.229 551.29 300.556 551.512C299.892 551.728 299.331 552.092 298.875 552.604C298.427 553.11 298.139 553.727 298.013 554.455L296.244 564.658L293.767 564.228ZM304.765 566.136L307.561 550.013L310.038 550.442L307.242 566.565L304.765 566.136ZM309.286 547.544C308.803 547.46 308.415 547.223 308.123 546.834C307.837 546.446 307.734 546.02 307.814 545.559C307.894 545.097 308.134 544.731 308.534 544.462C308.941 544.193 309.386 544.101 309.869 544.185C310.352 544.269 310.736 544.505 311.022 544.893C311.315 545.283 311.421 545.708 311.341 546.17C311.261 546.632 311.017 546.997 310.61 547.265C310.21 547.535 309.769 547.628 309.286 547.544ZM320.428 568.852L324.156 547.355L326.76 547.806L323.432 566.994L333.425 568.727L333.024 571.036L320.428 568.852ZM341.398 572.878C340.377 572.701 339.483 572.347 338.717 571.818C337.952 571.282 337.388 570.604 337.026 569.784C336.665 568.957 336.575 568.019 336.757 566.97C336.917 566.046 337.229 565.329 337.693 564.818C338.157 564.3 338.722 563.93 339.388 563.706C340.054 563.483 340.768 563.355 341.531 563.321C342.302 563.282 343.07 563.278 343.836 563.31C344.838 563.354 345.648 563.397 346.268 563.44C346.896 563.477 347.364 563.439 347.672 563.326C347.986 563.215 348.178 562.96 348.248 562.561L348.262 562.477C348.442 561.442 348.298 560.588 347.831 559.916C347.37 559.245 346.57 558.81 345.429 558.612C344.246 558.407 343.274 558.505 342.513 558.907C341.751 559.308 341.183 559.779 340.808 560.32L338.602 559.072C339.192 558.165 339.884 557.5 340.679 557.075C341.481 556.645 342.318 556.393 343.188 556.321C344.067 556.243 344.912 556.274 345.724 556.415C346.242 556.504 346.825 556.671 347.475 556.913C348.134 557.15 348.745 557.512 349.309 557.999C349.88 558.487 350.31 559.149 350.597 559.984C350.885 560.82 350.918 561.878 350.696 563.159L348.853 573.781L346.376 573.352L346.755 571.169L346.629 571.147C346.4 571.467 346.055 571.793 345.594 572.124C345.133 572.455 344.553 572.704 343.854 572.871C343.154 573.038 342.336 573.04 341.398 572.878ZM342.162 570.718C343.142 570.888 344.001 570.839 344.739 570.57C345.485 570.303 346.082 569.895 346.53 569.346C346.986 568.797 347.272 568.187 347.388 567.516L347.782 565.248C347.655 565.356 347.404 565.432 347.029 565.475C346.662 565.512 346.241 565.529 345.766 565.526C345.299 565.517 344.843 565.503 344.4 565.484C343.964 565.459 343.611 565.441 343.339 565.429C342.68 565.402 342.055 565.434 341.462 565.526C340.878 565.612 340.382 565.81 339.975 566.122C339.576 566.428 339.322 566.895 339.213 567.525C339.063 568.386 339.269 569.092 339.829 569.643C340.398 570.189 341.175 570.547 342.162 570.718ZM357.534 565.296L355.852 574.995L353.375 574.566L356.171 558.443L358.564 558.858L358.127 561.377L358.337 561.413C358.857 560.66 359.545 560.102 360.401 559.738C361.258 559.368 362.295 559.288 363.513 559.5C364.605 559.689 365.521 560.078 366.262 560.668C367.005 561.251 367.525 562.033 367.823 563.015C368.123 563.99 368.153 565.163 367.916 566.534L366.139 576.779L363.662 576.349L365.409 566.273C365.629 565.006 365.471 563.962 364.936 563.141C364.402 562.314 363.561 561.8 362.413 561.601C361.623 561.464 360.886 561.513 360.204 561.748C359.529 561.984 358.955 562.4 358.485 562.996C358.014 563.592 357.697 564.358 357.534 565.296ZM373.994 572.086L374.484 569.014L374.988 569.101L383.287 563.145L386.352 563.676L377.518 569.973L377.308 569.936L373.994 572.086ZM370.666 577.564L374.394 556.067L376.871 556.496L373.143 577.994L370.666 577.564ZM380.911 579.341L375.996 570.271L378.058 568.855L384.06 579.887L380.911 579.341ZM391.423 581.553C390.401 581.376 389.508 581.023 388.742 580.493C387.977 579.957 387.413 579.279 387.051 578.459C386.69 577.633 386.6 576.694 386.782 575.645C386.942 574.721 387.254 574.004 387.717 573.493C388.182 572.975 388.747 572.605 389.413 572.382C390.079 572.158 390.793 572.03 391.556 571.996C392.327 571.957 393.095 571.953 393.861 571.985C394.862 572.029 395.673 572.072 396.293 572.115C396.921 572.152 397.389 572.114 397.696 572.002C398.011 571.89 398.203 571.635 398.272 571.236L398.287 571.152C398.467 570.117 398.323 569.263 397.855 568.591C397.395 567.92 396.595 567.486 395.454 567.288C394.271 567.083 393.299 567.181 392.538 567.582C391.776 567.983 391.208 568.454 390.833 568.995L388.627 567.747C389.217 566.84 389.909 566.175 390.704 565.75C391.506 565.32 392.343 565.069 393.213 564.996C394.092 564.918 394.937 564.949 395.749 565.09C396.266 565.18 396.85 565.346 397.5 565.588C398.158 565.825 398.77 566.187 399.334 566.674C399.905 567.162 400.335 567.824 400.622 568.66C400.91 569.495 400.943 570.553 400.72 571.834L398.878 582.457L396.401 582.027L396.78 579.844L396.654 579.822C396.425 580.143 396.08 580.469 395.619 580.799C395.158 581.13 394.578 581.379 393.879 581.546C393.179 581.713 392.361 581.716 391.423 581.553ZM392.187 579.393C393.167 579.563 394.026 579.514 394.764 579.246C395.51 578.978 396.107 578.57 396.555 578.021C397.011 577.473 397.297 576.863 397.413 576.191L397.806 573.924C397.68 574.031 397.429 574.107 397.054 574.15C396.687 574.187 396.266 574.204 395.79 574.201C395.323 574.192 394.868 574.178 394.425 574.159C393.989 574.134 393.635 574.116 393.364 574.105C392.705 574.077 392.08 574.109 391.487 574.201C390.903 574.287 390.407 574.486 390 574.797C389.601 575.103 389.347 575.571 389.237 576.2C389.088 577.061 389.294 577.767 389.854 578.318C390.423 578.864 391.2 579.222 392.187 579.393Z" fill="white"/>
<defs>
<filter id="filter0_bi_9_248" x="-42" y="-42" width="708.915" height="816.419" filterUnits="userSpaceOnUse" color-interpolation-filters="sRGB">
<feFlood flood-opacity="0" result="BackgroundImageFix"/>
<feGaussianBlur in="BackgroundImageFix" stdDeviation="21"/>
<feComposite in2="SourceAlpha" operator="in" result="effect1_backgroundBlur_9_248"/>
<feBlend mode="normal" in="SourceGraphic" in2="effect1_backgroundBlur_9_248" result="shape"/>
<feColorMatrix in="SourceAlpha" type="matrix" values="0 0 0 0 0 0 0 0 0 0 0 0 0 0 0 0 0 0 127 0" result="hardAlpha"/>
<feOffset dx="-5" dy="-5"/>
<feGaussianBlur stdDeviation="125"/>
<feComposite in2="hardAlpha" operator="arithmetic" k2="-1" k3="1"/>
<feColorMatrix type="matrix" values="0 0 0 0 1 0 0 0 0 1 0 0 0 0 1 0 0 0 0.02 0"/>
<feBlend mode="normal" in2="shape" result="effect2_innerShadow_9_248"/>
</filter>
<radialGradient id="paint0_radial_9_248" cx="0" cy="0" r="1" gradientUnits="userSpaceOnUse" gradientTransform="translate(111.577) rotate(51.4152) scale(835.374 565.958)">
<stop stop-color="white" stop-opacity="0.4"/>
<stop offset="1" stop-color="white" stop-opacity="0"/>
</radialGradient>
<linearGradient id="paint1_linear_9_248" x1="111.577" y1="0" x2="282.607" y2="712.103" gradientUnits="userSpaceOnUse">
<stop stop-color="white"/>
<stop offset="1" stop-color="#EEEDED" stop-opacity="0.5"/>
</linearGradient>
</defs>
</svg>
