<svg width="625" height="733" viewBox="0 0 625 733" fill="none" xmlns="http://www.w3.org/2000/svg">
<g filter="url(#filter0_bi_9_248)">
<rect x="111.577" width="521" height="653" rx="50" transform="rotate(9.83834 111.577 0)" fill="url(#paint0_radial_9_248)"/>
<rect x="110.763" y="-1.15616" width="523" height="655" rx="51" transform="rotate(9.83834 110.763 -1.15616)" stroke="url(#paint1_linear_9_248)" stroke-opacity="0.4" stroke-width="2"/>
</g>
<mask id="mask0_9_248" style="mask-type:alpha" maskUnits="userSpaceOnUse" x="275" y="97" width="144" height="144">
<rect x="296.715" y="97.0617" width="124" height="124" transform="rotate(9.83834 296.715 97.0617)" fill="#C4C4C4"/>
</mask>
<g mask="url(#mask0_9_248)">
<path d="M342.751 196.239C327.876 193.659 317.876 179.459 320.456 164.584C323.035 149.712 337.232 139.708 352.107 142.288C366.982 144.867 376.982 159.068 374.403 173.939C371.824 188.814 357.626 198.818 342.751 196.239ZM352.768 138.476C335.792 135.533 319.588 146.947 316.644 163.923C313.7 180.899 325.114 197.106 342.09 200.05C359.062 202.993 375.27 191.576 378.214 174.6C381.158 157.625 369.74 141.42 352.768 138.476Z" fill="#F5FCFF"/>
<path d="M354.333 129.452C355.385 129.634 356.385 128.93 356.568 127.875L359.207 112.657C359.389 111.605 358.685 110.605 357.633 110.423C356.581 110.24 355.578 110.944 355.396 111.996L352.757 127.214C352.573 128.269 353.281 129.269 354.333 129.452Z" fill="#F5FCFF"/>
<path d="M340.601 208.636C339.549 208.454 338.546 209.157 338.363 210.213L335.724 225.43C335.541 226.482 336.249 227.483 337.301 227.665C338.353 227.847 339.353 227.143 339.535 226.091L342.174 210.874C342.357 209.818 341.653 208.819 340.601 208.636Z" fill="#F5FCFF"/>
<path d="M374.149 138.998C374.428 139.245 374.758 139.397 375.101 139.456C375.739 139.567 376.419 139.356 376.88 138.835L387.137 127.284C387.842 126.483 387.77 125.265 386.974 124.554C386.174 123.845 384.952 123.916 384.244 124.716L373.986 136.271C373.278 137.067 373.349 138.289 374.149 138.998Z" fill="#F5FCFF"/>
<path d="M320.786 199.09C319.99 198.382 318.764 198.453 318.056 199.253L307.799 210.804C307.09 211.604 307.166 212.823 307.962 213.535C308.244 213.783 308.571 213.934 308.913 213.993C309.551 214.104 310.231 213.893 310.692 213.372L320.95 201.818C321.658 201.021 321.583 199.798 320.786 199.09Z" fill="#F5FCFF"/>
<path d="M387.124 157.758C387.43 157.811 387.747 157.793 388.062 157.69L402.735 152.826C403.751 152.492 404.301 151.399 403.963 150.383C403.628 149.374 402.535 148.82 401.519 149.158L386.846 154.018C385.831 154.352 385.28 155.449 385.618 156.462C385.85 157.163 386.445 157.64 387.124 157.758Z" fill="#F5FCFF"/>
<path d="M306.825 180.516L292.146 185.375C291.133 185.713 290.584 186.803 290.918 187.819C291.153 188.52 291.744 189 292.426 189.119C292.728 189.171 293.047 189.149 293.362 189.046L308.038 184.187C309.054 183.85 309.604 182.756 309.269 181.741C308.931 180.731 307.841 180.182 306.825 180.516" fill="#F5FCFF"/>
<path d="M404.564 176.875L404.558 176.874L389.319 174.277C388.267 174.097 387.267 174.805 387.088 175.858C386.908 176.907 387.613 177.907 388.662 178.089L388.667 178.09L403.906 180.687C404.959 180.867 405.959 180.159 406.138 179.106C406.318 178.053 405.612 177.057 404.564 176.875Z" fill="#F5FCFF"/>
<path d="M307.806 162.34C307.986 161.288 307.28 160.291 306.228 160.109L306.225 160.108L290.986 157.511C289.93 157.331 288.934 158.04 288.755 159.092C288.575 160.145 289.28 161.141 290.329 161.323L290.334 161.324L305.573 163.921C306.626 164.101 307.623 163.392 307.805 162.34" fill="#F5FCFF"/>
<path d="M393.776 203.391L381.672 193.766C380.836 193.1 379.62 193.238 378.954 194.074C378.292 194.91 378.43 196.13 379.266 196.792L391.368 206.414C391.631 206.627 391.931 206.756 392.239 206.809C392.911 206.926 393.632 206.68 394.084 206.109C394.751 205.27 394.609 204.053 393.776 203.391Z" fill="#F5FCFF"/>
<path d="M315.68 141.276L303.579 131.651C302.744 130.985 301.524 131.123 300.862 131.959C300.196 132.795 300.334 134.014 301.17 134.677L313.271 144.302C313.535 144.512 313.835 144.641 314.143 144.694C314.819 144.811 315.536 144.565 315.992 143.994C316.654 143.158 316.516 141.939 315.68 141.276" fill="#F5FCFF"/>
<path d="M365.176 207.347C364.774 206.361 363.647 205.882 362.657 206.288C361.668 206.689 361.193 207.82 361.598 208.806L367.432 223.127C367.691 223.766 368.258 224.189 368.892 224.299C369.238 224.359 369.6 224.328 369.95 224.186C370.939 223.784 371.415 222.653 371.013 221.664L365.176 207.347Z" fill="#F5FCFF"/>
<path d="M329.768 130.724C330.027 131.364 330.597 131.791 331.228 131.9C331.574 131.96 331.94 131.926 332.286 131.787C333.275 131.382 333.751 130.251 333.349 129.265L327.512 114.944C327.11 113.959 325.983 113.48 324.99 113.885C324.001 114.287 323.529 115.418 323.931 116.403L329.768 130.724Z" fill="#F5FCFF"/>
</g>
<path d="M222.005 464.691C212.768 463.089 204.808 460.075 198.128 455.649C191.493 451.23 186.543 445.831 183.276 439.45C180.065 433.03 178.924 426.032 179.853 418.456L197.487 421.515C197.06 426.198 197.954 430.462 200.171 434.306C202.396 438.104 205.613 441.305 209.823 443.909C214.032 446.513 218.89 448.293 224.395 449.247C230.553 450.315 236.197 450.189 241.328 448.868C246.458 447.547 250.708 445.209 254.078 441.853C257.447 438.496 259.568 434.299 260.442 429.261C261.356 423.989 260.855 419.12 258.938 414.655C257.03 410.143 253.754 406.308 249.112 403.148C244.47 399.988 238.51 397.777 231.233 396.515L219.756 394.525L222.426 379.13L233.902 381.12C239.594 382.107 244.764 381.946 249.412 380.638C254.106 379.338 257.99 377.032 261.063 373.72C264.183 370.417 266.18 366.246 267.054 361.208C267.895 356.356 267.554 351.948 266.031 347.983C264.508 344.019 261.961 340.694 258.39 338.008C254.866 335.331 250.468 333.535 245.197 332.621C240.251 331.763 235.428 331.864 230.728 332.923C226.081 333.943 222.087 335.917 218.744 338.846C215.409 341.727 213.212 345.527 212.154 350.245L195.359 347.333C196.941 339.87 200.345 333.685 205.569 328.776C210.801 323.821 217.122 320.351 224.53 318.368C231.984 316.393 239.84 316.122 248.098 317.554C256.962 319.091 264.254 322.206 269.976 326.898C275.706 331.544 279.768 337.078 282.162 343.5C284.557 349.923 285.167 356.516 283.994 363.28C282.595 371.351 279.279 377.864 274.046 382.82C268.86 387.783 262.462 390.734 254.851 391.673L254.656 392.792C263.448 395.855 269.848 400.929 273.857 408.016C277.875 415.056 279.094 423.124 277.517 432.222C276.166 440.012 272.829 446.642 267.508 452.111C262.241 457.541 255.662 461.397 247.769 463.681C239.877 465.964 231.288 466.301 222.005 464.691ZM335.943 484.45C325.4 482.622 316.917 478.195 310.494 471.171C304.08 464.099 299.864 454.742 297.846 443.1C295.837 431.41 296.183 417.774 298.885 402.193C301.571 386.704 305.824 373.818 311.644 363.534C317.519 353.212 324.667 345.802 333.088 341.303C341.564 336.766 351.026 335.404 361.476 337.216C371.927 339.028 380.355 343.493 386.761 350.611C393.222 357.69 397.458 367.075 399.467 378.764C401.531 390.415 401.22 403.985 398.534 419.474C395.832 435.055 391.567 448.011 385.739 458.342C379.919 468.625 372.798 476.017 364.378 480.515C355.965 484.967 346.487 486.279 335.943 484.45ZM338.613 469.055C349.063 470.867 358.054 467.237 365.587 458.163C373.119 449.089 378.503 435.222 381.74 416.561C383.892 404.152 384.395 393.354 383.248 384.169C382.149 374.992 379.523 367.689 375.37 362.259C371.265 356.838 365.76 353.529 358.855 352.331C348.498 350.535 339.518 354.24 331.915 363.445C324.32 372.604 318.908 386.491 315.68 405.105C313.528 417.515 313.006 428.284 314.114 437.415C315.221 446.545 317.832 453.798 321.946 459.173C326.106 464.555 331.662 467.85 338.613 469.055Z" fill="white"/>
<path d="M435.088 319.603C437.577 320.035 439.945 318.366 440.377 315.878C440.808 313.39 439.14 311.021 436.651 310.59C434.163 310.158 431.795 311.827 431.363 314.315C430.932 316.803 432.6 319.172 435.088 319.603ZM435.428 317.644C434.017 317.399 433.078 316.066 433.323 314.655C433.567 313.244 434.901 312.305 436.312 312.549C437.722 312.794 438.662 314.127 438.417 315.538C438.172 316.949 436.839 317.888 435.428 317.644ZM465.37 322.19C465.339 317.947 462.469 314.946 458.432 314.246C453.299 313.356 448.89 316.668 447.789 323.017C446.688 329.365 449.724 333.969 454.858 334.859C458.894 335.559 462.607 333.7 464.065 329.714L461.636 329.293C460.565 331.973 457.917 333.048 455.252 332.586C451.607 331.954 449.236 328.636 450.14 323.424C451.044 318.212 454.394 315.887 458.038 316.519C460.703 316.981 462.835 318.885 462.94 321.769L465.37 322.19Z" fill="white"/>
<path d="M188.799 546.025L192.527 524.528L205.417 526.763L205.017 529.072L194.73 527.288L193.47 534.552L202.791 536.169L202.391 538.478L193.07 536.861L191.402 546.476L188.799 546.025ZM205.639 548.945L208.435 532.822L210.828 533.237L210.406 535.673L210.574 535.702C211.006 534.955 211.65 534.4 212.506 534.036C213.362 533.673 214.273 533.575 215.238 533.743C215.42 533.774 215.647 533.817 215.919 533.871C216.19 533.926 216.395 533.972 216.533 534.01L216.096 536.53C216.015 536.494 215.828 536.429 215.535 536.335C215.249 536.235 214.942 536.157 214.613 536.099C213.829 535.964 213.101 536.007 212.428 536.229C211.764 536.445 211.203 536.809 210.747 537.321C210.299 537.827 210.011 538.444 209.885 539.172L208.116 549.375L205.639 548.945ZM221.316 552.053C220.294 551.876 219.4 551.523 218.634 550.993C217.869 550.457 217.306 549.779 216.943 548.959C216.582 548.133 216.492 547.195 216.674 546.145C216.835 545.221 217.146 544.504 217.61 543.993C218.074 543.476 218.64 543.105 219.306 542.882C219.971 542.658 220.686 542.53 221.448 542.496C222.219 542.457 222.988 542.453 223.753 542.485C224.755 542.529 225.565 542.572 226.185 542.615C226.813 542.652 227.281 542.614 227.589 542.502C227.904 542.39 228.096 542.135 228.165 541.737L228.179 541.653C228.359 540.617 228.215 539.763 227.748 539.091C227.288 538.42 226.487 537.986 225.346 537.788C224.164 537.583 223.192 537.681 222.43 538.082C221.668 538.484 221.1 538.954 220.725 539.495L218.52 538.247C219.11 537.341 219.802 536.675 220.596 536.25C221.399 535.82 222.235 535.569 223.106 535.496C223.984 535.418 224.829 535.449 225.641 535.59C226.159 535.68 226.743 535.846 227.393 536.088C228.051 536.325 228.662 536.687 229.226 537.174C229.798 537.662 230.227 538.324 230.515 539.16C230.802 539.995 230.835 541.054 230.613 542.334L228.771 552.957L226.294 552.527L226.672 550.344L226.546 550.322C226.318 550.643 225.973 550.969 225.512 551.3C225.051 551.63 224.47 551.879 223.771 552.047C223.072 552.214 222.253 552.216 221.316 552.053ZM222.079 549.893C223.059 550.063 223.918 550.014 224.657 549.746C225.402 549.479 225.999 549.07 226.448 548.521C226.903 547.973 227.189 547.363 227.306 546.691L227.699 544.424C227.572 544.531 227.321 544.607 226.946 544.65C226.579 544.687 226.158 544.704 225.683 544.701C225.216 544.692 224.761 544.678 224.317 544.659C223.882 544.634 223.528 544.616 223.256 544.605C222.598 544.577 221.972 544.609 221.38 544.701C220.795 544.787 220.299 544.986 219.892 545.297C219.493 545.603 219.239 546.071 219.13 546.7C218.981 547.561 219.186 548.267 219.746 548.818C220.315 549.364 221.093 549.722 222.079 549.893ZM237.451 544.472L235.769 554.171L233.292 553.741L236.088 537.618L238.482 538.033L238.045 540.552L238.255 540.589C238.774 539.835 239.462 539.277 240.318 538.914C241.175 538.543 242.213 538.464 243.43 538.675C244.522 538.864 245.438 539.254 246.18 539.844C246.922 540.427 247.442 541.209 247.74 542.19C248.04 543.165 248.071 544.338 247.833 545.71L246.056 555.954L243.579 555.525L245.327 545.448C245.546 544.181 245.388 543.138 244.853 542.317C244.319 541.489 243.478 540.976 242.331 540.776C241.54 540.639 240.803 540.688 240.121 540.923C239.446 541.159 238.873 541.575 238.402 542.171C237.931 542.767 237.614 543.534 237.451 544.472ZM260.391 541.832L260.027 543.932L251.671 542.483L252.035 540.383L260.391 541.832ZM255.141 536.943L257.618 537.373L254.953 552.74C254.831 553.44 254.842 553.982 254.984 554.367C255.135 554.746 255.361 555.023 255.662 555.198C255.971 555.367 256.308 555.483 256.672 555.546C256.945 555.594 257.171 555.619 257.351 555.621C257.532 555.616 257.677 555.613 257.785 555.61L257.903 557.922C257.724 557.956 257.479 557.979 257.167 557.989C256.854 558.007 256.467 557.976 256.005 557.896C255.305 557.775 254.645 557.505 254.026 557.088C253.413 556.672 252.94 556.117 252.606 555.425C252.279 554.734 252.197 553.92 252.359 552.982L255.141 536.943ZM266 559.802C264.978 559.625 264.085 559.272 263.319 558.743C262.554 558.206 261.99 557.528 261.628 556.709C261.267 555.882 261.177 554.944 261.359 553.894C261.519 552.97 261.831 552.253 262.294 551.742C262.759 551.225 263.324 550.854 263.99 550.631C264.656 550.408 265.37 550.279 266.133 550.246C266.904 550.206 267.672 550.203 268.438 550.234C269.439 550.278 270.25 550.322 270.87 550.364C271.498 550.401 271.966 550.363 272.273 550.251C272.588 550.14 272.78 549.885 272.849 549.486L272.864 549.402C273.044 548.366 272.9 547.512 272.432 546.84C271.972 546.169 271.172 545.735 270.031 545.537C268.848 545.332 267.876 545.43 267.115 545.831C266.353 546.233 265.785 546.704 265.41 547.244L263.204 545.997C263.794 545.09 264.486 544.424 265.281 544C266.083 543.569 266.92 543.318 267.79 543.245C268.669 543.167 269.514 543.198 270.326 543.339C270.844 543.429 271.427 543.595 272.077 543.838C272.736 544.074 273.347 544.436 273.911 544.923C274.482 545.411 274.912 546.073 275.199 546.909C275.487 547.745 275.52 548.803 275.298 550.083L273.455 560.706L270.978 560.276L271.357 558.093L271.231 558.071C271.002 558.392 270.657 558.718 270.196 559.049C269.735 559.38 269.155 559.629 268.456 559.796C267.756 559.963 266.938 559.965 266 559.802ZM266.764 557.643C267.744 557.812 268.603 557.763 269.341 557.495C270.087 557.228 270.684 556.819 271.132 556.27C271.588 555.722 271.874 555.112 271.99 554.44L272.383 552.173C272.257 552.281 272.006 552.356 271.631 552.399C271.264 552.436 270.843 552.454 270.367 552.45C269.9 552.442 269.445 552.427 269.002 552.408C268.566 552.383 268.213 552.365 267.941 552.354C267.282 552.326 266.657 552.358 266.064 552.45C265.48 552.536 264.984 552.735 264.577 553.046C264.178 553.352 263.924 553.82 263.814 554.45C263.665 555.31 263.871 556.016 264.431 556.568C265 557.113 265.777 557.471 266.764 557.643ZM282.181 559.192L281.817 560.296C281.56 561.073 281.23 561.896 280.827 562.763C280.431 563.631 280.034 564.445 279.636 565.205C279.237 565.965 278.913 566.568 278.662 567.015L276.773 566.687C276.941 566.255 277.163 565.685 277.437 564.975C277.712 564.266 278.001 563.469 278.306 562.585C278.616 561.709 278.903 560.807 279.164 559.88L279.494 558.726L282.181 559.192ZM294.911 564.427L298.639 542.929L305.903 544.189C307.589 544.482 308.915 545.025 309.88 545.82C310.853 546.608 311.51 547.562 311.849 548.68C312.188 549.799 312.248 550.991 312.029 552.258C311.809 553.525 311.35 554.631 310.653 555.577C309.963 556.524 309.029 557.212 307.851 557.642C306.675 558.066 305.251 558.132 303.578 557.842L298.372 556.939L298.772 554.63L303.895 555.518C305.049 555.719 306.011 555.68 306.78 555.402C307.549 555.125 308.15 554.674 308.582 554.05C309.023 553.42 309.318 552.675 309.467 551.814C309.617 550.953 309.589 550.155 309.385 549.421C309.188 548.687 308.769 548.067 308.129 547.559C307.49 547.045 306.587 546.686 305.418 546.484L300.841 545.69L297.514 564.878L294.911 564.427ZM318.017 568.823C316.995 568.646 316.101 568.293 315.335 567.763C314.57 567.227 314.007 566.549 313.644 565.729C313.283 564.903 313.194 563.964 313.376 562.915C313.536 561.991 313.848 561.274 314.311 560.763C314.776 560.245 315.341 559.875 316.007 559.652C316.673 559.428 317.387 559.3 318.15 559.266C318.92 559.227 319.689 559.223 320.455 559.255C321.456 559.299 322.267 559.342 322.886 559.385C323.514 559.422 323.982 559.384 324.29 559.272C324.605 559.16 324.797 558.905 324.866 558.506L324.881 558.422C325.06 557.387 324.916 556.533 324.449 555.861C323.989 555.19 323.188 554.755 322.048 554.558C320.865 554.353 319.893 554.451 319.131 554.852C318.37 555.253 317.801 555.724 317.427 556.265L315.221 555.017C315.811 554.11 316.503 553.445 317.297 553.02C318.1 552.59 318.936 552.339 319.807 552.266C320.685 552.188 321.531 552.219 322.342 552.36C322.86 552.45 323.444 552.616 324.094 552.858C324.752 553.095 325.363 553.457 325.928 553.944C326.499 554.432 326.928 555.094 327.216 555.93C327.503 556.765 327.536 557.823 327.314 559.104L325.472 569.727L322.995 569.297L323.373 567.114L323.247 567.092C323.019 567.413 322.674 567.738 322.213 568.069C321.752 568.4 321.172 568.649 320.472 568.816C319.773 568.983 318.954 568.986 318.017 568.823ZM318.781 566.663C319.76 566.833 320.619 566.784 321.358 566.516C322.103 566.248 322.7 565.84 323.149 565.291C323.604 564.743 323.89 564.133 324.007 563.461L324.4 561.194C324.273 561.301 324.022 561.377 323.647 561.42C323.28 561.457 322.859 561.474 322.384 561.471C321.917 561.462 321.462 561.448 321.018 561.429C320.583 561.404 320.229 561.386 319.957 561.375C319.299 561.347 318.673 561.379 318.081 561.471C317.496 561.557 317.001 561.756 316.593 562.067C316.194 562.373 315.94 562.84 315.831 563.47C315.682 564.331 315.887 565.037 316.448 565.588C317.016 566.134 317.794 566.492 318.781 566.663ZM329.993 570.511L332.789 554.388L335.183 554.803L334.76 557.238L334.928 557.267C335.361 556.52 336.005 555.965 336.861 555.602C337.717 555.239 338.627 555.141 339.593 555.308C339.775 555.34 340.002 555.383 340.274 555.437C340.545 555.491 340.75 555.538 340.887 555.576L340.451 558.095C340.37 558.06 340.183 557.995 339.89 557.9C339.604 557.801 339.297 557.722 338.968 557.665C338.184 557.529 337.456 557.572 336.783 557.794C336.119 558.011 335.558 558.375 335.102 558.887C334.653 559.393 334.366 560.01 334.24 560.738L332.471 570.94L329.993 570.511ZM340.991 572.418L343.787 556.295L346.265 556.725L343.469 572.848L340.991 572.418ZM345.513 553.826C345.03 553.743 344.642 553.506 344.35 553.116C344.064 552.728 343.961 552.303 344.041 551.841C344.121 551.379 344.361 551.014 344.761 550.744C345.168 550.476 345.613 550.384 346.096 550.467C346.578 550.551 346.963 550.787 347.249 551.175C347.541 551.565 347.648 551.991 347.568 552.453C347.488 552.914 347.244 553.28 346.837 553.548C346.437 553.817 345.996 553.91 345.513 553.826ZM361.596 563.103L359.262 563.347C359.186 562.952 359.042 562.555 358.83 562.158C358.626 561.755 358.313 561.398 357.891 561.087C357.469 560.776 356.898 560.558 356.177 560.433C355.19 560.262 354.329 560.347 353.592 560.688C352.864 561.023 352.439 561.537 352.319 562.229C352.212 562.845 352.352 563.37 352.738 563.805C353.124 564.239 353.772 564.658 354.683 565.061L356.974 566.064C358.355 566.664 359.336 567.386 359.918 568.229C360.501 569.065 360.695 570.047 360.499 571.173C360.339 572.097 359.93 572.877 359.272 573.512C358.621 574.149 357.787 574.595 356.769 574.851C355.752 575.107 354.617 575.127 353.364 574.91C351.719 574.624 350.42 574.032 349.466 573.131C348.512 572.23 348.011 571.069 347.962 569.648L350.415 569.468C350.489 570.374 350.799 571.099 351.347 571.64C351.901 572.184 352.686 572.543 353.701 572.719C354.855 572.919 355.814 572.833 356.578 572.461C357.35 572.083 357.796 571.548 357.916 570.855C358.013 570.295 357.899 569.792 357.572 569.347C357.247 568.894 356.695 568.503 355.916 568.173L353.338 567.077C351.922 566.471 350.932 565.741 350.366 564.886C349.809 564.025 349.627 563.038 349.82 561.926C349.978 561.016 350.373 560.256 351.005 559.644C351.644 559.034 352.443 558.607 353.401 558.362C354.366 558.119 355.415 558.095 356.549 558.292C358.144 558.568 359.336 559.136 360.124 559.993C360.92 560.852 361.41 561.888 361.596 563.103Z" fill="white"/>
<defs>
<filter id="filter0_bi_9_248" x="-42" y="-42" width="708.915" height="816.419" filterUnits="userSpaceOnUse" color-interpolation-filters="sRGB">
<feFlood flood-opacity="0" result="BackgroundImageFix"/>
<feGaussianBlur in="BackgroundImageFix" stdDeviation="21"/>
<feComposite in2="SourceAlpha" operator="in" result="effect1_backgroundBlur_9_248"/>
<feBlend mode="normal" in="SourceGraphic" in2="effect1_backgroundBlur_9_248" result="shape"/>
<feColorMatrix in="SourceAlpha" type="matrix" values="0 0 0 0 0 0 0 0 0 0 0 0 0 0 0 0 0 0 127 0" result="hardAlpha"/>
<feOffset dx="-5" dy="-5"/>
<feGaussianBlur stdDeviation="125"/>
<feComposite in2="hardAlpha" operator="arithmetic" k2="-1" k3="1"/>
<feColorMatrix type="matrix" values="0 0 0 0 1 0 0 0 0 1 0 0 0 0 1 0 0 0 0.02 0"/>
<feBlend mode="normal" in2="shape" result="effect2_innerShadow_9_248"/>
</filter>
<radialGradient id="paint0_radial_9_248" cx="0" cy="0" r="1" gradientUnits="userSpaceOnUse" gradientTransform="translate(111.577) rotate(51.4152) scale(835.374 565.958)">
<stop stop-color="white" stop-opacity="0.4"/>
<stop offset="1" stop-color="white" stop-opacity="0"/>
</radialGradient>
<linearGradient id="paint1_linear_9_248" x1="111.577" y1="0" x2="282.607" y2="712.103" gradientUnits="userSpaceOnUse">
<stop stop-color="white"/>
<stop offset="1" stop-color="#EEEDED" stop-opacity="0.5"/>
</linearGradient>
</defs>
</svg>
