<svg width="727" height="800" viewBox="0 0 727 800" fill="none" xmlns="http://www.w3.org/2000/svg">
<g filter="url(#filter0_bi_9_239)">
<rect y="193.666" width="521" height="653" rx="50" transform="rotate(-21.8217 0 193.666)" fill="url(#paint0_radial_9_239)"/>
<rect x="-1.30007" y="193.11" width="523" height="655" rx="51" transform="rotate(-21.8217 -1.30007 193.11)" stroke="url(#paint1_linear_9_239)" stroke-opacity="0.4" stroke-width="2"/>
<path d="M264.245 262.576L315.894 241.895C316.238 241.758 316.596 241.614 316.946 241.517L316.931 241.48C325.367 238.102 329.325 228.093 325.751 219.169C322.177 210.241 312.404 205.73 303.969 209.107C302.772 209.587 301.594 210.251 300.476 211.078C300.111 211.349 299.645 211.443 299.194 211.337C298.746 211.231 298.35 210.935 298.111 210.523C291.79 199.684 279.2 195.025 268.184 199.436C255.907 204.352 250.147 218.919 255.35 231.911C255.605 232.549 255.904 233.162 256.203 233.765C256.425 234.226 256.449 234.757 256.26 235.215C256.075 235.672 255.69 236.012 255.231 236.139C254.765 236.268 254.302 236.418 253.844 236.601C247.075 239.311 243.9 247.344 246.767 254.503C249.634 261.665 257.476 265.287 264.245 262.576L264.245 262.576ZM252.488 233.457C252.441 233.34 252.393 233.227 252.347 233.113C246.444 218.371 252.981 201.836 266.913 196.258C278.893 191.461 292.507 196.111 299.94 207.324C300.834 206.772 301.758 206.302 302.696 205.927C312.789 201.885 324.48 207.288 328.755 217.966C333.031 228.644 328.298 240.619 318.197 244.663L304.544 250.13L265.519 265.756C257.093 269.13 247.334 264.62 243.764 255.705C240.207 246.821 244.118 236.862 252.488 233.457" fill="white"/>
<path d="M299.609 395.288L353.677 530.32L337.326 536.868L290.121 418.978L289.33 419.295L265.128 454.385L258.475 437.77L283.257 401.836L299.609 395.288ZM371.41 364.396C376.966 362.223 382.926 361.06 389.292 360.908C395.658 360.756 402.085 362.161 408.575 365.122C415.048 368.038 421.314 373.052 427.374 380.163C433.435 387.274 438.947 397.027 443.91 409.423C448.715 421.423 451.84 432.539 453.286 442.773C454.758 452.946 454.638 462.072 452.926 470.153C451.259 478.216 448.052 485.111 443.306 490.836C438.604 496.544 432.451 500.92 424.847 503.965C417.286 506.993 409.941 508.2 402.81 507.587C395.705 506.912 389.189 504.651 383.262 500.802C377.361 496.891 372.457 491.587 368.551 484.888L384.639 478.446C388.571 484.063 393.5 488.031 399.427 490.35C405.381 492.608 411.918 492.311 419.038 489.46C429.456 485.289 435.854 477.448 438.233 465.938C440.655 454.41 438.54 440.339 431.887 423.723L430.832 424.146C429.849 428.824 428.202 433.181 425.891 437.217C423.58 441.254 420.649 444.825 417.098 447.93C413.547 451.035 409.442 453.52 404.783 455.386C397.046 458.483 389.182 459.414 381.189 458.177C373.223 456.878 365.959 453.641 359.398 448.465C352.864 443.227 347.854 436.256 344.369 427.553C341.06 419.289 339.879 410.99 340.826 402.654C341.799 394.257 344.829 386.668 349.918 379.887C355.05 373.089 362.214 367.925 371.41 364.396ZM377.218 378.902C371.679 381.119 367.245 384.501 363.914 389.048C360.61 393.534 358.594 398.625 357.866 404.323C357.164 409.959 357.94 415.59 360.193 421.217C362.446 426.843 365.727 431.471 370.037 435.101C374.373 438.669 379.24 440.953 384.639 441.954C390.064 442.892 395.546 442.253 401.084 440.035C405.26 438.363 408.825 435.993 411.778 432.923C414.713 429.809 416.95 426.287 418.487 422.357C420.051 418.364 420.871 414.236 420.949 409.972C421.009 405.663 420.238 401.509 418.636 397.509C416.524 392.234 413.27 387.8 408.872 384.205C404.519 380.593 399.55 378.247 393.967 377.168C388.427 376.071 382.844 376.649 377.218 378.902Z" fill="white"/>
<path d="M425.296 310.577C427.641 309.638 428.781 306.975 427.842 304.631C426.904 302.286 424.241 301.146 421.896 302.085C419.551 303.024 418.411 305.687 419.35 308.031C420.289 310.376 422.952 311.516 425.296 310.577ZM424.557 308.731C423.228 309.263 421.729 308.621 421.196 307.292C420.664 305.963 421.306 304.463 422.635 303.931C423.965 303.399 425.464 304.041 425.996 305.37C426.528 306.699 425.886 308.199 424.557 308.731ZM452.43 296.885C450.176 293.289 446.158 292.242 442.354 293.765C437.518 295.701 435.503 300.835 437.898 306.817C440.293 312.798 445.294 315.123 450.131 313.186C453.934 311.663 456.119 308.132 455.268 303.974L452.979 304.891C453.475 307.734 451.784 310.039 449.274 311.044C445.84 312.419 442.08 310.84 440.114 305.929C438.147 301.019 439.778 297.281 443.212 295.906C445.723 294.901 448.537 295.402 450.14 297.802L452.43 296.885Z" fill="white"/>
<path d="M361.477 625.667L353.367 605.413L355.82 604.431L363.059 622.51L372.474 618.74L373.345 620.915L361.477 625.667ZM383.125 617.367C381.753 617.916 380.419 618.071 379.123 617.833C377.833 617.592 376.663 617.001 375.613 616.06C374.569 615.116 373.733 613.859 373.105 612.29C372.471 610.708 372.205 609.212 372.306 607.802C372.414 606.389 372.851 605.151 373.618 604.086C374.392 603.019 375.465 602.211 376.836 601.661C378.207 601.112 379.538 600.958 380.828 601.199C382.124 601.437 383.296 602.032 384.342 602.982C385.395 603.93 386.238 605.195 386.872 606.778C387.5 608.347 387.759 609.834 387.649 611.24C387.545 612.644 387.106 613.879 386.332 614.946C385.565 616.011 384.496 616.818 383.125 617.367ZM382.285 615.27C383.327 614.853 384.077 614.243 384.536 613.439C384.994 612.636 385.211 611.734 385.186 610.735C385.16 609.735 384.944 608.728 384.538 607.712C384.131 606.697 383.591 605.815 382.916 605.068C382.242 604.32 381.461 603.811 380.572 603.539C379.683 603.268 378.717 603.341 377.675 603.758C376.634 604.175 375.885 604.789 375.429 605.599C374.973 606.409 374.759 607.317 374.787 608.323C374.815 609.329 375.032 610.34 375.439 611.355C375.845 612.371 376.384 613.249 377.056 613.99C377.728 614.731 378.506 615.234 379.393 615.499C380.279 615.763 381.243 615.687 382.285 615.27ZM399.484 596.77L397.625 598.203C397.353 597.906 397.023 597.645 396.634 597.418C396.248 597.182 395.795 597.042 395.272 596.999C394.75 596.956 394.149 597.07 393.47 597.342C392.541 597.714 391.852 598.239 391.404 598.915C390.959 599.583 390.868 600.243 391.129 600.896C391.362 601.476 391.756 601.85 392.313 602.017C392.869 602.184 393.641 602.2 394.627 602.066L397.104 601.717C398.594 601.502 399.808 601.601 400.746 602.014C401.681 602.42 402.362 603.154 402.787 604.215C403.135 605.085 403.196 605.964 402.969 606.85C402.75 607.734 402.274 608.552 401.542 609.304C400.81 610.056 399.854 610.668 398.674 611.141C397.125 611.761 395.708 611.938 394.423 611.672C393.138 611.406 392.102 610.681 391.314 609.497L393.308 608.056C393.846 608.789 394.491 609.243 395.241 609.417C395.998 609.588 396.855 609.482 397.811 609.099C398.899 608.664 399.67 608.087 400.125 607.369C400.584 606.643 400.682 605.953 400.421 605.3C400.21 604.773 399.848 604.405 399.336 604.196C398.822 603.982 398.147 603.938 397.311 604.067L394.541 604.487C393.018 604.714 391.791 604.613 390.861 604.182C389.935 603.742 389.263 602.997 388.843 601.949C388.5 601.092 388.437 600.237 388.654 599.385C388.878 598.53 389.333 597.748 390.02 597.036C390.714 596.323 391.594 595.752 392.662 595.324C394.166 594.722 395.478 594.579 396.599 594.896C397.727 595.209 398.689 595.834 399.484 596.77ZM416.975 603.445L414.404 604.475L413.731 581.242L416.263 580.228L431.81 597.505L429.239 598.535L416.359 583.908L416.201 583.971L416.975 603.445ZM414.756 595.153L425.121 591.003L425.992 593.179L415.628 597.329L414.756 595.153ZM433.323 586.296L436.983 595.434L434.649 596.369L428.566 581.178L430.821 580.275L431.771 582.648L431.969 582.569C432.016 581.655 432.309 580.819 432.846 580.06C433.382 579.295 434.223 578.683 435.37 578.224C436.399 577.812 437.383 577.662 438.324 577.775C439.261 577.882 440.115 578.275 440.884 578.954C441.65 579.626 442.292 580.608 442.81 581.901L446.675 591.553L444.341 592.488L440.539 582.993C440.061 581.8 439.379 580.994 438.493 580.577C437.604 580.152 436.618 580.157 435.537 580.59C434.792 580.888 434.191 581.316 433.733 581.874C433.283 582.43 433.013 583.084 432.925 583.839C432.837 584.593 432.97 585.412 433.323 586.296ZM459.479 593.403C458.352 593.855 457.325 594.098 456.398 594.132C455.473 594.174 454.647 594.068 453.919 593.817C453.2 593.569 452.577 593.245 452.049 592.844L453.385 590.794C453.707 590.987 454.101 591.196 454.567 591.423C455.035 591.656 455.602 591.792 456.268 591.832C456.943 591.875 457.739 591.713 458.656 591.346C459.882 590.855 460.775 590.153 461.336 589.24C461.896 588.328 461.922 587.238 461.416 585.972L460.18 582.887L459.982 582.966C459.922 583.311 459.815 583.752 459.662 584.287C459.513 584.814 459.209 585.352 458.749 585.904C458.293 586.446 457.57 586.915 456.581 587.311C455.355 587.802 454.137 587.953 452.929 587.764C451.728 587.571 450.622 587.035 449.611 586.154C448.607 585.271 447.788 584.038 447.155 582.456C446.532 580.9 446.263 579.435 446.348 578.062C446.431 576.683 446.833 575.481 447.556 574.458C448.275 573.427 449.275 572.656 450.554 572.144C451.543 571.748 452.393 571.599 453.106 571.696C453.822 571.784 454.418 571.974 454.894 572.265C455.374 572.547 455.753 572.786 456.03 572.981L456.267 572.886L455.301 570.473L457.556 569.57L463.813 585.196C464.336 586.501 464.464 587.682 464.198 588.737C463.941 589.796 463.392 590.716 462.549 591.497C461.716 592.282 460.693 592.918 459.479 593.403ZM456.058 585.088C456.994 584.713 457.7 584.182 458.174 583.495C458.649 582.807 458.893 581.994 458.907 581.055C458.921 580.116 458.704 579.086 458.255 577.965C457.817 576.871 457.266 575.971 456.601 575.265C455.936 574.56 455.185 574.099 454.349 573.883C453.513 573.667 452.62 573.75 451.67 574.13C450.681 574.526 449.957 575.106 449.499 575.871C449.047 576.634 448.825 577.503 448.833 578.479C448.848 579.452 449.061 580.453 449.473 581.482C449.895 582.537 450.434 583.404 451.088 584.083C451.747 584.752 452.495 585.187 453.332 585.388C454.174 585.578 455.082 585.479 456.058 585.088ZM474.407 580.816C472.943 581.402 471.551 581.585 470.231 581.364C468.915 581.133 467.736 580.549 466.695 579.612C465.658 578.666 464.828 577.414 464.205 575.858C463.582 574.302 463.317 572.817 463.408 571.403C463.504 569.98 463.93 568.731 464.685 567.656C465.444 566.572 466.51 565.755 467.881 565.206C468.672 564.889 469.506 564.708 470.383 564.663C471.261 564.618 472.134 564.765 473.005 565.105C473.873 565.438 474.689 566.014 475.453 566.833C476.217 567.652 476.882 568.77 477.45 570.188L477.846 571.177L466.136 575.865L465.328 573.848L474.664 570.11C474.321 569.252 473.844 568.556 473.231 568.021C472.626 567.483 471.932 567.145 471.15 567.007C470.374 566.866 469.565 566.965 468.721 567.302C467.791 567.675 467.079 568.228 466.585 568.961C466.094 569.685 465.814 570.486 465.745 571.363C465.675 572.24 465.808 573.097 466.143 573.935L466.682 575.28C467.141 576.427 467.729 577.32 468.444 577.96C469.163 578.59 469.961 578.97 470.84 579.1C471.715 579.224 472.625 579.097 473.568 578.719C474.181 578.474 474.7 578.166 475.126 577.797C475.556 577.418 475.882 576.982 476.105 576.487C476.325 575.986 476.428 575.432 476.415 574.825L478.923 574.555C478.992 575.415 478.863 576.247 478.534 577.052C478.204 577.85 477.691 578.576 476.996 579.229C476.299 579.875 475.436 580.404 474.407 580.816ZM478.345 555.37L486.455 575.625L484.121 576.559L476.011 556.305L478.345 555.37ZM497.226 571.679C495.762 572.265 494.37 572.448 493.05 572.227C491.734 571.996 490.555 571.413 489.514 570.475C488.477 569.529 487.647 568.277 487.024 566.721C486.401 565.165 486.135 563.68 486.227 562.266C486.323 560.843 486.749 559.594 487.504 558.519C488.263 557.435 489.329 556.618 490.7 556.069C491.491 555.752 492.325 555.571 493.202 555.526C494.079 555.481 494.953 555.628 495.824 555.968C496.692 556.302 497.508 556.878 498.271 557.696C499.035 558.515 499.701 559.633 500.269 561.051L500.665 562.04L488.955 566.729L488.147 564.711L497.483 560.973C497.14 560.116 496.662 559.419 496.05 558.884C495.445 558.346 494.751 558.008 493.969 557.87C493.193 557.729 492.383 557.828 491.539 558.166C490.61 558.538 489.898 559.091 489.404 559.824C488.913 560.548 488.633 561.349 488.564 562.226C488.494 563.103 488.627 563.96 488.962 564.798L489.501 566.143C489.96 567.29 490.547 568.183 491.262 568.823C491.981 569.453 492.78 569.833 493.658 569.963C494.534 570.087 495.444 569.96 496.386 569.583C497 569.337 497.519 569.03 497.945 568.66C498.375 568.281 498.701 567.845 498.924 567.35C499.144 566.849 499.247 566.295 499.234 565.688L501.742 565.418C501.811 566.278 501.681 567.11 501.353 567.915C501.023 568.713 500.51 569.439 499.815 570.092C499.117 570.738 498.254 571.267 497.226 571.679ZM512.98 551.325L511.121 552.758C510.849 552.461 510.518 552.2 510.129 551.973C509.744 551.737 509.29 551.597 508.768 551.554C508.246 551.511 507.645 551.625 506.966 551.897C506.036 552.269 505.347 552.794 504.899 553.47C504.455 554.138 504.364 554.798 504.625 555.451C504.857 556.031 505.252 556.405 505.808 556.572C506.365 556.739 507.136 556.755 508.123 556.621L510.6 556.272C512.09 556.057 513.304 556.156 514.242 556.569C515.177 556.975 515.857 557.709 516.282 558.77C516.631 559.64 516.692 560.519 516.465 561.405C516.245 562.289 515.769 563.107 515.038 563.859C514.306 564.611 513.35 565.223 512.17 565.696C510.62 566.316 509.203 566.493 507.919 566.227C506.634 565.961 505.598 565.236 504.81 564.052L506.804 562.611C507.342 563.344 507.986 563.798 508.737 563.972C509.494 564.143 510.35 564.037 511.306 563.654C512.394 563.219 513.166 562.642 513.62 561.924C514.079 561.198 514.178 560.508 513.916 559.855C513.705 559.328 513.344 558.96 512.832 558.752C512.318 558.537 511.642 558.493 510.806 558.622L508.037 559.042C506.514 559.269 505.287 559.168 504.357 558.737C503.431 558.297 502.758 557.552 502.338 556.504C501.995 555.647 501.932 554.792 502.15 553.94C502.373 553.085 502.829 552.303 503.516 551.591C504.209 550.878 505.09 550.307 506.158 549.879C507.661 549.277 508.974 549.134 510.095 549.451C511.222 549.764 512.184 550.389 512.98 551.325Z" fill="white"/>
</g>
<defs>
<filter id="filter0_bi_9_239" x="-42" y="-42" width="810.401" height="883.875" filterUnits="userSpaceOnUse" color-interpolation-filters="sRGB">
<feFlood flood-opacity="0" result="BackgroundImageFix"/>
<feGaussianBlur in="BackgroundImageFix" stdDeviation="21"/>
<feComposite in2="SourceAlpha" operator="in" result="effect1_backgroundBlur_9_239"/>
<feBlend mode="normal" in="SourceGraphic" in2="effect1_backgroundBlur_9_239" result="shape"/>
<feColorMatrix in="SourceAlpha" type="matrix" values="0 0 0 0 0 0 0 0 0 0 0 0 0 0 0 0 0 0 127 0" result="hardAlpha"/>
<feOffset dx="-5" dy="-5"/>
<feGaussianBlur stdDeviation="125"/>
<feComposite in2="hardAlpha" operator="arithmetic" k2="-1" k3="1"/>
<feColorMatrix type="matrix" values="0 0 0 0 1 0 0 0 0 1 0 0 0 0 1 0 0 0 0.02 0"/>
<feBlend mode="normal" in2="shape" result="effect2_innerShadow_9_239"/>
</filter>
<radialGradient id="paint0_radial_9_239" cx="0" cy="0" r="1" gradientUnits="userSpaceOnUse" gradientTransform="translate(0 193.666) rotate(51.4152) scale(835.374 565.958)">
<stop stop-color="white" stop-opacity="0.4"/>
<stop offset="1" stop-color="white" stop-opacity="0"/>
</radialGradient>
<linearGradient id="paint1_linear_9_239" x1="0" y1="193.666" x2="171.03" y2="905.769" gradientUnits="userSpaceOnUse">
<stop stop-color="white"/>
<stop offset="1" stop-color="#EEEDED" stop-opacity="0.5"/>
</linearGradient>
</defs>
</svg>
